<svg width="202" height="40" viewBox="0 0 202 40" fill="none" xmlns="http://www.w3.org/2000/svg">
<g clip-path="url(#clip0_146_95)">
<path d="M35.4636 15.7782C35.4636 17.3097 34.4454 18.7087 32.7649 19.76H32.7566L32.1523 20.116L31.0679 20.7368C29.3792 20.0498 27.3096 19.6524 25.0828 19.6524C22.4255 19.6524 20 20.2236 18.1705 21.159L4.47849 29.0564C1.81293 27.9885 0.0827942 26.2253 0.0827942 24.2219C0.0827942 22.6905 1.10101 21.2915 2.77319 20.2402L4.47021 19.2551C6.16723 19.9421 8.22849 20.3395 10.4553 20.3395C13.1043 20.3395 15.5133 19.7766 17.351 18.8412L31.0596 10.9272C33.7169 12.0034 35.4553 13.7666 35.4553 15.77L35.4636 15.7782Z" fill="url(#paint0_radial_146_95)"/>
<path d="M35.4636 25.5878C35.4636 27.1193 34.4454 28.5183 32.7649 29.5696H32.7566L32.1523 29.9256L17.3593 38.4603C15.5215 39.3875 13.1126 39.9587 10.4636 39.9587C4.72683 39.9504 0.0827942 37.3014 0.0827942 34.0315C0.0827942 32.5001 1.10101 31.1011 2.77319 30.0498L4.47021 29.0729C6.16723 29.76 8.22849 30.1574 10.4553 30.1574C13.1043 30.1574 15.5133 29.5945 17.351 28.659L31.0679 20.7451C33.7252 21.8213 35.4636 23.5845 35.4636 25.5878Z" fill="url(#paint1_radial_146_95)"/>
<path d="M35.4636 5.96866C35.4636 7.50011 34.4454 8.89912 32.7649 9.95044H32.7566L32.1523 10.3064L31.0679 10.9355C29.3792 10.2485 27.3096 9.85111 25.0828 9.85111C22.4255 9.85111 20 10.4223 18.1705 11.3577L4.47021 19.2551C1.81293 18.1872 0.0827942 16.4157 0.0827942 14.4206C0.0827942 12.8892 1.10101 11.4902 2.77319 10.4389L18.1623 1.5564C20 0.612696 22.4255 0.0415039 25.0828 0.0415039C30.8113 0.0415039 35.4636 2.69879 35.4636 5.96866Z" fill="url(#paint2_radial_146_95)"/>
<path d="M73.5596 32.856V7.08616C73.5596 6.83781 73.7583 6.63086 74.0149 6.63086H76.697C76.9288 6.63086 77.1523 6.74675 77.2848 6.93715L91.5397 27.2186C91.5977 27.3014 91.7219 27.26 91.7219 27.1607V7.08616C91.7219 6.83781 91.9205 6.63086 92.1772 6.63086H94.7765C95.0248 6.63086 95.2318 6.82954 95.2318 7.08616V32.856C95.2318 33.1044 95.0331 33.3113 94.7765 33.3113H91.9536C91.8046 33.3113 91.6722 33.2368 91.5811 33.1209L77.4338 12.9719C77.3179 12.8146 77.0695 12.8891 77.0695 13.0878V32.856C77.0695 33.1044 76.8709 33.3113 76.6142 33.3113H74.0149C73.7666 33.3113 73.5596 33.1126 73.5596 32.856Z" fill="#190023"/>
<path d="M111.142 33.8825C108.344 33.8825 105.977 33.2948 104.023 32.1276C102.07 30.9521 100.588 29.3213 99.5612 27.2352C98.543 25.1491 98.0298 22.7319 98.0298 19.9918C98.0298 17.2517 98.5348 14.8345 99.5612 12.7484C100.579 10.6623 102.07 9.03154 104.023 7.85604C105.977 6.68054 108.344 6.10107 111.142 6.10107C114.396 6.10107 117.07 6.8875 119.164 8.45207C121.134 9.92558 122.533 11.8792 123.353 14.3047C123.435 14.5613 123.278 14.8428 123.022 14.9007L120.381 15.563C120.149 15.6209 119.925 15.4802 119.851 15.265C119.263 13.4686 118.278 12.0365 116.904 10.9603C115.43 9.80968 113.51 9.23849 111.142 9.23849C109.048 9.23849 107.31 9.68551 105.919 10.5878C104.528 11.4901 103.485 12.7484 102.781 14.3709C102.078 15.9852 101.722 17.8643 101.705 19.9835C101.689 22.111 102.036 23.9736 102.74 25.5878C103.444 27.2021 104.495 28.4603 105.894 29.3709C107.301 30.2815 109.048 30.7286 111.142 30.7286C113.51 30.7286 115.43 30.1491 116.904 28.9984C118.278 27.9223 119.263 26.4901 119.851 24.7021C119.925 24.4786 120.149 24.3461 120.381 24.4041L123.022 25.0663C123.278 25.1325 123.435 25.414 123.353 25.6623C122.533 28.0961 121.134 30.0497 119.164 31.515C117.061 33.0878 114.387 33.866 111.142 33.866V33.8825Z" fill="#190023"/>
<path d="M137.798 33.8989C135 33.8989 132.632 33.3111 130.679 32.1439C128.725 30.9684 127.243 29.3376 126.225 27.2515C125.207 25.1654 124.694 22.7482 124.694 20.0082C124.694 17.2681 125.199 14.8509 126.225 12.7648C127.243 10.6787 128.725 9.0479 130.679 7.8724C132.632 6.6969 135 6.11743 137.798 6.11743C140.596 6.11743 142.988 6.70518 144.934 7.8724C146.887 9.0479 148.369 10.6787 149.379 12.7648C150.389 14.8509 150.902 17.2681 150.902 20.0082C150.902 22.7482 150.397 25.1654 149.379 27.2515C148.361 29.3376 146.879 30.9684 144.934 32.1439C142.98 33.3194 140.604 33.8989 137.798 33.8989ZM137.798 30.7532C139.892 30.7615 141.631 30.3145 143.03 29.4121C144.421 28.5015 145.472 27.2433 146.167 25.6207C146.871 24.0065 147.219 22.1356 147.219 20.0082C147.219 17.8807 146.863 16.0181 146.167 14.4039C145.464 12.7896 144.421 11.5313 143.03 10.6373C141.639 9.73498 139.901 9.27968 137.798 9.26313C135.704 9.24657 133.965 9.69359 132.583 10.5959C131.2 11.4982 130.157 12.7648 129.454 14.3873C128.75 16.0098 128.394 17.889 128.386 20.0082C128.369 22.1356 128.717 23.9982 129.421 25.6042C130.124 27.2101 131.176 28.4684 132.566 29.3707C133.965 30.2813 135.704 30.7366 137.798 30.7532Z" fill="#190023"/>
<path d="M174.487 32.6657L169.214 22.765C170.571 22.2849 171.664 21.4985 172.483 20.4471C173.642 18.9405 174.238 17.1524 174.238 15.0663C174.238 13.6591 173.965 12.3677 173.419 11.1922C172.897 10.0167 172.086 9.06468 171.018 8.29481C169.959 7.50839 168.618 7.02826 167.061 6.78819C166.689 6.73852 166.316 6.68885 165.927 6.6723C165.53 6.6723 165.207 6.64746 164.909 6.64746H153.899C153.651 6.64746 153.427 6.86269 153.427 7.10276V32.8809C153.427 33.121 153.651 33.3362 153.899 33.3362H156.548C156.821 33.3362 157.02 33.121 157.02 32.8809V23.9405C157.02 23.6756 157.243 23.4852 157.492 23.4852H165.53L170.596 33.0713C170.671 33.2369 170.82 33.3362 171.018 33.3362H174.065C174.437 33.3362 174.661 32.9802 174.487 32.6657ZM157.492 20.3478C157.243 20.3478 157.02 20.1326 157.02 19.8925V10.2319C157.02 9.967 157.243 9.7766 157.492 9.7766H164.793C165.066 9.7766 165.339 9.80143 165.679 9.82627C166.002 9.8511 166.324 9.87594 166.623 9.94216C167.541 10.1326 168.303 10.4885 168.874 11.0183C169.445 11.5398 169.892 12.169 170.157 12.8809C170.43 13.6011 170.555 14.313 170.555 15.0581C170.555 15.8031 170.43 16.515 170.157 17.2352C169.884 17.9554 169.437 18.5514 168.874 19.073C168.303 19.5945 167.541 19.9587 166.623 20.174C166.324 20.2236 166.002 20.2733 165.679 20.2898C165.331 20.3147 165.058 20.3395 164.793 20.3395H157.492V20.3478Z" fill="#190023"/>
<path d="M177.326 32.8726V7.10276C177.326 6.85441 177.541 6.64746 177.815 6.64746H186.639C186.945 6.64746 187.483 6.64746 188.253 6.66402C189.023 6.6723 189.76 6.72196 190.455 6.81302C192.79 7.0862 194.743 7.83951 196.316 9.06468C197.889 10.2898 199.073 11.8544 199.876 13.7501C200.671 15.6458 201.076 17.7236 201.076 19.9836C201.076 22.2435 200.679 24.3379 199.876 26.2336C199.081 28.1293 197.897 29.6855 196.316 30.9107C194.743 32.1359 192.79 32.8809 190.455 33.1541C189.752 33.2369 189.015 33.2865 188.237 33.3031C187.459 33.3196 186.929 33.3196 186.631 33.3196H177.806C177.533 33.3196 177.318 33.121 177.318 32.8644L177.326 32.8726ZM180.728 29.7269C180.728 29.9753 180.944 30.1822 181.217 30.1822L187.161 30.2071C187.69 30.2071 188.286 30.1905 188.949 30.1574C189.603 30.1243 190.182 30.0746 190.671 30.0001C192.318 29.7269 193.659 29.1143 194.677 28.1706C195.695 27.2187 196.449 26.0349 196.921 24.611C197.401 23.1872 197.632 21.6557 197.632 20.0167C197.632 18.3776 197.392 16.7882 196.904 15.3726C196.416 13.9571 195.662 12.7816 194.636 11.8379C193.609 10.8942 192.285 10.2898 190.662 10.0332C190.174 9.95044 189.594 9.89249 188.924 9.86766C188.253 9.84283 187.666 9.82627 187.161 9.82627L181.217 9.80143C180.944 9.80143 180.728 10.0001 180.728 10.2567V29.7269Z" fill="#190023"/>
<path d="M68.394 23.8411C68.1788 23.7169 67.9139 23.8163 67.8146 24.0398C67.4255 24.9586 66.8957 25.8113 66.2748 26.5646C64.3543 28.8908 61.4404 30.3808 58.1788 30.3808H58.1622C54.9007 30.3808 51.9867 28.8908 50.0662 26.5563C50.0662 26.5563 68.3526 16.0431 68.3609 16.0348C69.2218 15.4553 69.793 14.4702 69.793 13.3527C69.793 12.6987 69.5944 12.0861 69.255 11.5729C69.2136 11.5149 69.0811 11.3411 69.048 11.2997C66.4983 8.1209 62.5662 6.08447 58.1622 6.08447H58.1457C53.6175 6.08447 49.5944 8.24507 47.0613 11.5729C46.3659 12.4752 45.7864 13.4686 45.3394 14.5282C44.6358 16.1838 44.2467 18.005 44.2384 19.9173V19.9421C44.2384 21.8461 44.6192 23.6673 45.3228 25.3146C45.7699 26.3742 46.3493 27.3676 47.0447 28.2782C49.5778 31.6226 53.6093 33.7914 58.154 33.7997H58.1705C62.7069 33.7997 66.7384 31.6391 69.2798 28.2947C69.8924 27.4918 70.4222 26.6143 70.8444 25.6706C70.9354 25.4719 70.8609 25.2484 70.6705 25.1408L68.3858 23.8245L68.394 23.8411ZM47.6987 19.9586V19.9338C47.6987 18.6507 47.9387 17.4173 48.3692 16.2831C48.7748 15.1987 49.3626 14.1971 50.0911 13.3196C52.0116 11.01 54.9172 9.53646 58.1622 9.52818H58.1788C60.356 9.52818 62.3758 10.1822 64.048 11.3163C64.8758 11.8709 65.6126 12.5414 66.2583 13.3113L48.3692 23.5928C47.947 22.4586 47.7152 21.2335 47.7152 19.9504L47.6987 19.9586Z" fill="#190023"/>
</g>
<defs>
<radialGradient id="paint0_radial_146_95" cx="0" cy="0" r="1" gradientUnits="userSpaceOnUse" gradientTransform="translate(55.1504 -23.6014) rotate(132.4) scale(77.3179 78.7169)">
<stop stop-color="#FFEFDD"/>
<stop offset="0.99" stop-color="#5E44FF"/>
</radialGradient>
<radialGradient id="paint1_radial_146_95" cx="0" cy="0" r="1" gradientUnits="userSpaceOnUse" gradientTransform="translate(55.1504 -23.6014) rotate(132.4) scale(77.3179 78.7169)">
<stop stop-color="#FFEFDD"/>
<stop offset="0.99" stop-color="#5E44FF"/>
</radialGradient>
<radialGradient id="paint2_radial_146_95" cx="0" cy="0" r="1" gradientUnits="userSpaceOnUse" gradientTransform="translate(55.1504 -23.6014) rotate(132.4) scale(77.3179 78.7169)">
<stop stop-color="#FFEFDD"/>
<stop offset="0.99" stop-color="#5E44FF"/>
</radialGradient>
<clipPath id="clip0_146_95">
<rect width="201.159" height="40" fill="white"/>
</clipPath>
</defs>
</svg>
