<svg width="19" height="23" viewBox="0 0 19 23" fill="none" xmlns="http://www.w3.org/2000/svg">
<path d="M17.8643 6.0459L12.6104 0.791992C12.4639 0.645508 12.2661 0.5625 12.0586 0.5625H1.6875C1.25537 0.5625 0.90625 0.911621 0.90625 1.34375V21.6562C0.90625 22.0884 1.25537 22.4375 1.6875 22.4375H17.3125C17.7446 22.4375 18.0938 22.0884 18.0938 21.6562V6.6001C18.0938 6.39258 18.0107 6.19238 17.8643 6.0459ZM16.292 6.95898H11.6973V2.36426L16.292 6.95898ZM16.3359 20.6797H2.66406V2.32031H10.0371V7.59375C10.0371 7.8657 10.1451 8.12651 10.3374 8.31881C10.5297 8.51111 10.7905 8.61914 11.0625 8.61914H16.3359V20.6797ZM10.2812 10.5234C10.2812 10.416 10.1934 10.3281 10.0859 10.3281H8.91406C8.80664 10.3281 8.71875 10.416 8.71875 10.5234V13.1602H6.08203C5.97461 13.1602 5.88672 13.248 5.88672 13.3555V14.5273C5.88672 14.6348 5.97461 14.7227 6.08203 14.7227H8.71875V17.3594C8.71875 17.4668 8.80664 17.5547 8.91406 17.5547H10.0859C10.1934 17.5547 10.2812 17.4668 10.2812 17.3594V14.7227H12.918C13.0254 14.7227 13.1133 14.6348 13.1133 14.5273V13.3555C13.1133 13.248 13.0254 13.1602 12.918 13.1602H10.2812V10.5234Z" fill="#595959"/>
</svg>
