<svg width="60" height="68" viewBox="0 0 60 68" fill="none" xmlns="http://www.w3.org/2000/svg">
<g clip-path="url(#clip0_146_448)">
<path d="M59.7394 26.7878C59.7394 29.3878 58.0182 31.7575 55.1879 33.5394L55.1697 33.5515L54.1515 34.1394L52.3212 35.2C49.4667 34.0424 45.9757 33.3636 42.2121 33.3636C37.7273 33.3636 33.6363 34.3272 30.5333 35.9212L7.41211 49.3091C2.92726 47.4909 -0.006073 44.4969 -0.006073 41.103C-0.006073 38.503 1.71514 36.1333 4.53938 34.3515L7.40605 32.6909C10.2667 33.8485 13.7515 34.5272 17.5151 34.5272C21.9818 34.5272 26.0545 33.5697 29.1515 31.9939L52.303 18.5818C56.7939 20.4 59.7212 23.4 59.7212 26.7878H59.7394Z" fill="url(#paint0_radial_146_448)"/>
<path d="M59.7394 43.4061C59.7394 46.0061 58.0182 48.3758 55.1879 50.1576L55.1697 50.1697L54.1515 50.7576L29.1636 65.2303C26.0667 66.8061 21.9939 67.7636 17.5273 67.7636C7.84242 67.7636 0 63.2667 0 57.7212C0 55.1212 1.72121 52.7515 4.54545 50.9697L7.41212 49.3091C10.2727 50.4667 13.7576 51.1455 17.5212 51.1455C21.9879 51.1455 26.0606 50.1879 29.1576 48.6121L52.3091 35.2C56.7939 37.0243 59.7273 40.0182 59.7273 43.4061H59.7394Z" fill="url(#paint1_radial_146_448)"/>
<path d="M59.7394 10.1637C59.7394 12.7637 58.0182 15.1334 55.1879 16.9152L55.1697 16.9273L54.1515 17.5152L52.3212 18.5758C49.4667 17.4182 45.9758 16.7394 42.2121 16.7394C37.7273 16.7394 33.6364 17.7031 30.5333 19.297L7.41818 32.6788C2.93333 30.8606 0 27.8667 0 24.4728C0 21.8728 1.72121 19.5031 4.54545 17.7212L30.5394 2.67275C33.6364 1.08487 37.7273 0.115173 42.2121 0.115173C51.8909 0.115173 59.7394 4.61214 59.7394 10.1576V10.1637Z" fill="url(#paint2_radial_146_448)"/>
</g>
<defs>
<radialGradient id="paint0_radial_146_448" cx="0" cy="0" r="1" gradientUnits="userSpaceOnUse" gradientTransform="translate(94.3341 -40.1831) rotate(132.29) scale(130.83 133.152)">
<stop stop-color="#FFEFDD"/>
<stop offset="0.99" stop-color="#5E44FF"/>
</radialGradient>
<radialGradient id="paint1_radial_146_448" cx="0" cy="0" r="1" gradientUnits="userSpaceOnUse" gradientTransform="translate(94.3342 -40.1831) rotate(132.29) scale(130.83 133.152)">
<stop stop-color="#FFEFDD"/>
<stop offset="0.99" stop-color="#5E44FF"/>
</radialGradient>
<radialGradient id="paint2_radial_146_448" cx="0" cy="0" r="1" gradientUnits="userSpaceOnUse" gradientTransform="translate(94.3342 -40.1831) rotate(132.29) scale(130.83 133.152)">
<stop stop-color="#FFEFDD"/>
<stop offset="0.99" stop-color="#5E44FF"/>
</radialGradient>
<clipPath id="clip0_146_448">
<rect width="60" height="67.8788" fill="white"/>
</clipPath>
</defs>
</svg>
