<svg width="17" height="19" viewBox="0 0 17 19" fill="none" xmlns="http://www.w3.org/2000/svg">
<path d="M15.0249 1.80066C12.7251 -0.499146 8.98 -0.499146 6.68264 1.80066L0.31057 8.16785C0.269066 8.20935 0.247093 8.2655 0.247093 8.3241C0.247093 8.38269 0.269066 8.43884 0.31057 8.48035L1.21145 9.38123C1.25263 9.42222 1.30837 9.44524 1.36648 9.44524C1.42459 9.44524 1.48033 9.42222 1.52151 9.38123L7.89358 3.01404C8.68459 2.22302 9.73684 1.78845 10.855 1.78845C11.9732 1.78845 13.0254 2.22302 13.814 3.01404C14.605 3.80505 15.0396 4.8573 15.0396 5.97302C15.0396 7.09119 14.605 8.14099 13.814 8.93201L7.31985 15.4237L6.2676 16.476C5.28371 17.4598 3.68459 17.4598 2.70071 16.476C2.22463 15.9999 1.9634 15.3676 1.9634 14.6937C1.9634 14.0199 2.22463 13.3876 2.70071 12.9115L9.14358 6.47107C9.30715 6.30994 9.52199 6.2196 9.75149 6.2196H9.75393C9.98342 6.2196 10.1958 6.30994 10.357 6.47107C10.5205 6.63464 10.6084 6.84949 10.6084 7.07898C10.6084 7.30603 10.5181 7.52087 10.357 7.68201L5.09084 12.9432C5.04934 12.9847 5.02737 13.0409 5.02737 13.0995C5.02737 13.1581 5.04934 13.2142 5.09084 13.2557L5.99172 14.1566C6.0329 14.1976 6.08864 14.2206 6.14675 14.2206C6.20486 14.2206 6.2606 14.1976 6.30178 14.1566L11.5655 8.89294C12.0513 8.4071 12.3174 7.76257 12.3174 7.07654C12.3174 6.3905 12.0488 5.74353 11.5655 5.26013C10.562 4.25671 8.93117 4.25915 7.92776 5.26013L7.30276 5.88757L1.48733 11.7006C1.09263 12.0929 0.779755 12.5598 0.566857 13.074C0.353958 13.5882 0.245269 14.1396 0.247093 14.6962C0.247093 15.8265 0.688987 16.8885 1.48733 17.6869C2.31496 18.5121 3.39895 18.9247 4.48293 18.9247C5.56692 18.9247 6.6509 18.5121 7.4761 17.6869L15.0249 10.1429C16.1358 9.02966 16.751 7.54773 16.751 5.97302C16.7534 4.39587 16.1382 2.91394 15.0249 1.80066Z" fill="#5E44FF"/>
</svg>
