<svg width="21" height="19" viewBox="0 0 21 19" fill="none" xmlns="http://www.w3.org/2000/svg">
<path d="M13.6396 7.49316H19.9165C20.1094 7.49316 20.2656 7.33691 20.2656 7.14404V0.864746C20.2656 0.671875 20.1094 0.515625 19.9165 0.515625H13.6396C13.4468 0.515625 13.2905 0.671875 13.2905 0.864746V3.13281H9.97754C9.88232 3.13281 9.8042 3.21094 9.8042 3.30615V8.71387H7.71191V6.35791C7.71191 6.16504 7.55566 6.00879 7.36279 6.00879H1.0835C0.890625 6.00879 0.734375 6.16504 0.734375 6.35791V12.6372C0.734375 12.8301 0.890625 12.9863 1.0835 12.9863H7.36035C7.55322 12.9863 7.70947 12.8301 7.70947 12.6372V10.2812H9.80176V15.689C9.80176 15.7842 9.87988 15.8623 9.9751 15.8623H13.2881V18.1304C13.2881 18.3232 13.4443 18.4795 13.6372 18.4795H19.9141C20.1069 18.4795 20.2632 18.3232 20.2632 18.1304V11.856C20.2632 11.6631 20.1069 11.5068 19.9141 11.5068H13.6396C13.4468 11.5068 13.2905 11.6631 13.2905 11.856V14.2974H11.3716V4.70264H13.2905V7.14404C13.2905 7.33691 13.4468 7.49316 13.6396 7.49316ZM14.9458 2.17334H18.6079V5.83789H14.9458V2.17334ZM6.0542 11.3311H2.39209V7.66895H6.0542V11.3311ZM14.9458 13.1645H18.6079V16.8291H14.9458V13.1645Z" fill="#595959"/>
</svg>
